<svg xmlns="http://www.w3.org/2000/svg" style="display:none">

  <symbol id="logo" viewBox="0 0 136 16">
    <path d="M135.393 7.18757H131.785C131.766 6.96503 131.688 6.77327 131.55 6.61228C131.413 6.4513 131.235 6.32819 131.018 6.24296C130.804 6.153 130.568 6.10802 130.307 6.10802C129.971 6.10802 129.682 6.16957 129.441 6.29268C129.199 6.41579 129.081 6.59098 129.086 6.81825C129.081 6.97923 129.15 7.12838 129.292 7.26569C129.438 7.403 129.72 7.50954 130.137 7.58529L132.353 7.98302C133.47 8.18662 134.301 8.5299 134.846 9.01285C135.395 9.49107 135.672 10.1326 135.677 10.9376C135.672 11.7141 135.44 12.3888 134.981 12.9617C134.526 13.5299 133.903 13.9702 133.113 14.2827C132.327 14.5905 131.429 14.7444 130.421 14.7444C128.754 14.7444 127.45 14.4035 126.508 13.7217C125.57 13.0398 125.047 12.1402 124.938 11.0228H128.83C128.882 11.3684 129.053 11.636 129.341 11.8253C129.635 12.01 130.004 12.1023 130.449 12.1023C130.809 12.1023 131.105 12.0408 131.337 11.9177C131.574 11.7946 131.695 11.6194 131.699 11.3921C131.695 11.1838 131.59 11.0181 131.387 10.895C131.188 10.7718 130.875 10.6724 130.449 10.5967L128.518 10.2557C127.405 10.0616 126.572 9.6923 126.018 9.14779C125.464 8.60329 125.189 7.90253 125.194 7.04552C125.189 6.28795 125.388 5.64637 125.79 5.1208C126.197 4.5905 126.777 4.18804 127.53 3.91342C128.288 3.63406 129.185 3.49438 130.222 3.49438C131.799 3.49438 133.042 3.82109 133.951 4.4745C134.865 5.12791 135.345 6.03226 135.393 7.18757Z" fill="#475467"/>
    <path d="M116.415 11.9602L116.443 7.30114H116.955L119.597 3.63636H124L119.568 9.34659H118.46L116.415 11.9602ZM112.892 14.5455V0H116.813V14.5455H112.892ZM119.625 14.5455L117.125 10.2273L119.682 7.44318L124.114 14.5455H119.625Z" fill="#475467"/>
    <path d="M105.619 14.7444C104.435 14.7444 103.422 14.51 102.579 14.0413C101.736 13.5678 101.09 12.9096 100.64 12.0668C100.19 11.2193 99.9655 10.2368 99.9655 9.11938C99.9655 8.00196 100.19 7.02185 100.64 6.17904C101.09 5.3315 101.736 4.67336 102.579 4.20461C103.422 3.73113 104.435 3.49438 105.619 3.49438C106.689 3.49438 107.615 3.68851 108.396 4.07677C109.182 4.46029 109.79 5.0048 110.221 5.71029C110.652 6.41105 110.87 7.23491 110.875 8.18188H107.238C107.186 7.60897 107.02 7.17336 106.741 6.87507C106.466 6.57204 106.111 6.42052 105.676 6.42052C105.335 6.42052 105.036 6.51995 104.781 6.71882C104.525 6.91294 104.326 7.20887 104.184 7.6066C104.042 7.99959 103.971 8.49438 103.971 9.09097C103.971 9.68757 104.042 10.1847 104.184 10.5825C104.326 10.9754 104.525 11.2714 104.781 11.4702C105.036 11.6644 105.335 11.7614 105.676 11.7614C105.965 11.7614 106.22 11.6951 106.443 11.5626C106.665 11.4253 106.845 11.2264 106.983 10.966C107.125 10.7008 107.21 10.3789 107.238 10.0001H110.875C110.86 10.9612 110.64 11.7993 110.214 12.5143C109.788 13.2245 109.184 13.7737 108.403 14.162C107.626 14.5503 106.698 14.7444 105.619 14.7444Z" fill="#475467"/>
    <path d="M94.0487 9.77284V3.63647H97.9692V14.5456H94.2476V12.4717H94.1339C93.8972 13.1677 93.4829 13.7122 92.8911 14.1052C92.2992 14.4935 91.5961 14.6876 90.7817 14.6876C90.0194 14.6876 89.3517 14.5124 88.7788 14.162C88.2106 13.8117 87.7679 13.3287 87.4507 12.7132C87.1382 12.0976 86.9796 11.3922 86.9749 10.5967V3.63647H90.8953V9.77284C90.9 10.3126 91.0374 10.7364 91.3072 11.0441C91.5819 11.3519 91.9654 11.5058 92.4578 11.5058C92.7845 11.5058 93.0662 11.4371 93.303 11.2998C93.5445 11.1578 93.7291 10.9589 93.857 10.7032C93.9895 10.4428 94.0535 10.1327 94.0487 9.77284Z" fill="#475467"/>
    <path d="M77.903 14.5455V3.63643H81.7098V5.71029H81.8234C82.0223 4.94325 82.3371 4.38217 82.768 4.02705C83.2036 3.67194 83.7126 3.49438 84.295 3.49438C84.4655 3.49438 84.6335 3.50859 84.7993 3.537C84.9697 3.56067 85.1331 3.59618 85.2893 3.64353V6.9887C85.0952 6.92241 84.8561 6.8727 84.572 6.83955C84.2879 6.80641 84.0441 6.78984 83.8405 6.78984C83.4569 6.78984 83.1113 6.87743 82.8035 7.05262C82.5005 7.22308 82.2614 7.46455 82.0862 7.77705C81.911 8.08482 81.8234 8.44704 81.8234 8.8637V14.5455H77.903Z" fill="#475467"/>
    <path d="M64.4508 3.18182V0H77.0928V3.18182H72.7178V14.5455H68.8258V3.18182H64.4508Z" fill="#475467"/>
    <path d="M62.5079 0V14.5455H58.5874V0H62.5079Z" fill="#101828"/>
    <path d="M51.2467 14.7444C50.0819 14.7444 49.0781 14.5218 48.2353 14.0768C47.3973 13.627 46.751 12.983 46.2964 12.145C45.8466 11.3021 45.6217 10.2936 45.6217 9.11938C45.6217 7.99249 45.849 7.00764 46.3035 6.16484C46.7581 5.32204 47.3996 4.66626 48.2282 4.19751C49.0568 3.72876 50.0346 3.49438 51.1615 3.49438C51.9853 3.49438 52.7311 3.62223 53.3987 3.87791C54.0663 4.13359 54.6369 4.50527 55.1103 4.99296C55.5838 5.47592 55.9484 6.06304 56.2041 6.75433C56.4598 7.44562 56.5876 8.2245 56.5876 9.09097V10.0001H46.8433V7.84097H52.9797C52.9749 7.52847 52.8944 7.25385 52.7382 7.01711C52.5867 6.77563 52.3807 6.58861 52.1203 6.45603C51.8646 6.31872 51.5734 6.25007 51.2467 6.25007C50.9295 6.25007 50.6383 6.31872 50.3731 6.45603C50.108 6.58861 49.8949 6.77327 49.7339 7.01001C49.5777 7.24675 49.4948 7.52374 49.4853 7.84097V10.1705C49.4853 10.5209 49.5587 10.8334 49.7055 11.108C49.8523 11.3826 50.063 11.5981 50.3376 11.7543C50.6122 11.9106 50.9437 11.9887 51.3319 11.9887C51.6018 11.9887 51.848 11.9508 52.0706 11.8751C52.2978 11.7993 52.492 11.6904 52.653 11.5484C52.8139 11.4016 52.9323 11.2264 53.0081 11.0228H56.5876C56.4645 11.7804 56.1733 12.4385 55.714 12.9972C55.2548 13.5512 54.6463 13.9821 53.8887 14.2898C53.1359 14.5929 52.2552 14.7444 51.2467 14.7444Z" fill="#101828"/>
    <path d="M44.8364 3.63647L41.1717 14.5456H36.6262L32.9614 3.63647H37.0807L38.8421 10.8524H38.9557L40.7171 3.63647H44.8364Z" fill="#101828"/>
    <path d="M25.056 14.716C24.36 14.716 23.7445 14.6023 23.2094 14.3751C22.6791 14.1431 22.2625 13.7927 21.9594 13.3239C21.6564 12.8552 21.5049 12.2586 21.5049 11.5342C21.5049 10.9376 21.6067 10.4286 21.8103 10.0072C22.0139 9.58103 22.298 9.23302 22.6626 8.96313C23.0271 8.69325 23.4509 8.48728 23.9339 8.34524C24.4216 8.20319 24.9471 8.11086 25.5106 8.06825C26.1214 8.0209 26.6114 7.96408 26.9807 7.89779C27.3548 7.82677 27.6247 7.72971 27.7904 7.6066C27.9561 7.47876 28.039 7.31067 28.039 7.10234V7.07393C28.039 6.78984 27.9301 6.57204 27.7123 6.42052C27.4945 6.26901 27.2151 6.19325 26.8742 6.19325C26.5001 6.19325 26.1948 6.27611 25.958 6.44183C25.726 6.60281 25.5863 6.85139 25.539 7.18757H21.931C21.9784 6.52469 22.1891 5.91389 22.5631 5.35518C22.9419 4.79173 23.4935 4.34192 24.218 4.00575C24.9424 3.66484 25.8467 3.49438 26.931 3.49438C27.7123 3.49438 28.413 3.58671 29.0333 3.77137C29.6536 3.9513 30.1815 4.20461 30.6171 4.53132C31.0527 4.85329 31.3841 5.23207 31.6114 5.66768C31.8434 6.09855 31.9594 6.5673 31.9594 7.07393V14.5455H28.2947V13.0114H28.2094C27.9916 13.4186 27.7265 13.7477 27.414 13.9986C27.1062 14.2496 26.7535 14.4319 26.3557 14.5455C25.9627 14.6592 25.5295 14.716 25.056 14.716ZM26.3344 12.2444C26.6327 12.2444 26.9121 12.1828 27.1725 12.0597C27.4376 11.9366 27.6531 11.7591 27.8188 11.5271C27.9845 11.295 28.0674 11.0133 28.0674 10.6819V9.77279C27.9632 9.81541 27.8519 9.85565 27.7336 9.89353C27.6199 9.93141 27.4968 9.96692 27.3643 10.0001C27.2364 10.0332 27.0991 10.064 26.9523 10.0924C26.8103 10.1208 26.6611 10.1468 26.5049 10.1705C26.2019 10.2179 25.9533 10.296 25.7591 10.4049C25.5697 10.5091 25.4277 10.6393 25.333 10.7955C25.243 10.947 25.1981 11.1175 25.1981 11.3069C25.1981 11.6099 25.3046 11.8419 25.5177 12.0029C25.7307 12.1639 26.003 12.2444 26.3344 12.2444Z" fill="#101828"/>
    <path d="M13.4521 14.5455V3.63643H17.259V5.71029H17.3726C17.5715 4.94325 17.8863 4.38217 18.3172 4.02705C18.7528 3.67194 19.2618 3.49438 19.8442 3.49438C20.0146 3.49438 20.1827 3.50859 20.3485 3.537C20.5189 3.56067 20.6823 3.59618 20.8385 3.64353V6.9887C20.6444 6.92241 20.4053 6.8727 20.1212 6.83955C19.8371 6.80641 19.5932 6.78984 19.3896 6.78984C19.0061 6.78984 18.6605 6.87743 18.3527 7.05262C18.0497 7.22308 17.8106 7.46455 17.6354 7.77705C17.4602 8.08482 17.3726 8.44704 17.3726 8.8637V14.5455H13.4521Z" fill="#101828"/>
    <path d="M0 3.18182V0H12.642V3.18182H8.26705V14.5455H4.375V3.18182H0Z" fill="#101828"/>
  </symbol>

  <symbol id="chevron-left" viewBox="0 0 24 24">
    <path d="M15.41 7.41L14 6l-6 6 6 6 1.41-1.41L10.83 12z" fill="currentColor"/>
  </symbol>

  <symbol id="chevron-right" viewBox="0 0 24 24">
    <path d="M10 6L8.59 7.41 13.17 12l-4.58 4.59L10 18l6-6z" fill="currentColor"/>
  </symbol>

  <symbol id="chevron-up" viewBox="0 0 24 24">
    <path d="M12 8l-6 6 1.41 1.41L12 10.83l4.59 4.58L18 14z" fill="currentColor"/>
  </symbol>

  <symbol id="map" viewBox="0 0 24 24">
    <path d="m20.5 3-.16.03L15 5.1 9 3 3.36 4.9c-.21.07-.36.25-.36.48V20.5c0 .28.22.5.5.5l.16-.03L9 18.9l6 2.1 5.64-1.9c.21-.07.36-.25.36-.48V3.5c0-.28-.22-.5-.5-.5zM10 5.47l4 1.4v11.66l-4-1.4V5.47zm-5 .99 3-1.01v11.7l-3 1.16V6.46zm14 11.08-3 1.01V6.86l3-1.16v11.84z" fill="#101828"/>
  </symbol>
  <symbol id="star-filled" viewBox="0 0 576 512">
    <path d="M259.3 17.8L194 150.2 47.9 171.5c-26.2 3.8-36.7 36.1-17.7 54.6l105.7 103-25 145.5c-4.5 26.3 23.2 46 46.4 33.7L288 439.6l130.7 68.7c23.2 12.2 50.9-7.4 46.4-33.7l-25-145.5 105.7-103c19-18.5 8.5-50.8-17.7-54.6L382 150.2 316.7 17.8c-11.7-23.6-45.6-23.9-57.4 0z" fill="currentColor"/>
  </symbol>

  <symbol id="star-empty" viewBox="0 0 576 512">
    <path d="M528.1 171.5L382 150.2 316.7 17.8c-11.7-23.6-45.6-23.9-57.4 0L194 150.2 47.9 171.5c-26.2 3.8-36.7 36.1-17.7 54.6l105.7 103-25 145.5c-4.5 26.3 23.2 46 46.4 33.7L288 439.6l130.7 68.7c23.2 12.2 50.9-7.4 46.4-33.7l-25-145.5 105.7-103c19-18.5 8.5-50.8-17.7-54.6zM388.6 312.3l23.7 138.4L288 385.4l-124.3 65.3 23.7-138.4-100.6-98 139-20.2 62.2-126 62.2 126 139 20.2-100.6 98z" fill="currentColor"/>
  </symbol>

  <symbol id="close" viewBox="0 0 512 512">
    <path d="m289.94 256 95-95A24 24 0 0 0 351 127l-95 95-95-95a24 24 0 0 0-34 34l95 95-95 95a24 24 0 1 0 34 34l95-95 95 95a24 24 0 0 0 34-34z" fill="currentColor"/>
  </symbol>
  <symbol id="gas-pump" viewBox="0 0 256 256">
    <path d="M241,69.66,221.66,50.34a8,8,0,0,0-11.32,11.32L229.66,81A8,8,0,0,1,232,86.63V168a8,8,0,0,1-16,0V128a24,24,0,0,0-24-24H176V56a24,24,0,0,0-24-24H72A24,24,0,0,0,48,56V208H32a8,8,0,0,0,0,16H192a8,8,0,0,0,0-16H176V120h16a8,8,0,0,1,8,8v40a24,24,0,0,0,48,0V86.63A23.85,23.85,0,0,0,241,69.66ZM64,208V56a8,8,0,0,1,8-8h80a8,8,0,0,1,8,8V208Zm80-96a8,8,0,0,1-8,8H88a8,8,0,0,1,0-16h48A8,8,0,0,1,144,112Z" fill="currentColor"/>
  </symbol>

  <symbol id="van" viewBox="0 0 256 256">
    <path d="M254.07,106.79,208.53,53.73A16,16,0,0,0,196.26,48H32A16,16,0,0,0,16,64V176a16,16,0,0,0,16,16H49a32,32,0,0,0,62,0h50a32,32,0,0,0,62,0h17a16,16,0,0,0,16-16V112A8,8,0,0,0,254.07,106.79ZM230.59,104H176V64h20.26ZM104,104V64h56v40ZM88,64v40H32V64ZM80,200a16,16,0,1,1,16-16A16,16,0,0,1,80,200Zm112,0a16,16,0,1,1,16-16A16,16,0,0,1,192,200Zm31-24a32,32,0,0,0-62,0H111a32,32,0,0,0-62,0H32V120H240v56Z" fill="currentColor"/>
  </symbol>
  <symbol id="automatic" viewBox="0 0 24 24">
    <path fill="none" stroke="currentColor" stroke-width="2" stroke-linecap="round" stroke-linejoin="round" d="M17 17v4h1a2 2 0 1 0 0-4h-1z"/>
    <path fill="none" stroke="currentColor" stroke-width="2" stroke-linecap="round" stroke-linejoin="round" d="M17 11h1.5a1.5 1.5 0 0 0 0-3h-1.5v5"/>
    <path fill="none" stroke="currentColor" stroke-width="2" stroke-linecap="round" stroke-linejoin="round" d="M5 5m-2 0a2 2 0 1 0 4 0a2 2 0 1 0-4 0"/>
    <path fill="none" stroke="currentColor" stroke-width="2" stroke-linecap="round" stroke-linejoin="round" d="M5 7v3a1 1 0 0 0 1 1h3v7a1 1 0 0 0 1 1h3"/>
    <path fill="none" stroke="currentColor" stroke-width="2" stroke-linecap="round" stroke-linejoin="round" d="M9 11h4"/>
  </symbol>

  <symbol id="manual" viewBox="0 0 24 24">
    <path fill="none" stroke="currentColor" stroke-width="2" stroke-linecap="round" stroke-linejoin="round" d="M5 6m-2 0a2 2 0 1 0 4 0a2 2 0 1 0-4 0"/>
    <path fill="none" stroke="currentColor" stroke-width="2" stroke-linecap="round" stroke-linejoin="round" d="M12 6m-2 0a2 2 0 1 0 4 0a2 2 0 1 0-4 0"/>
    <path fill="none" stroke="currentColor" stroke-width="2" stroke-linecap="round" stroke-linejoin="round" d="M19 6m-2 0a2 2 0 1 0 4 0a2 2 0 1 0-4 0"/>
    <path fill="none" stroke="currentColor" stroke-width="2" stroke-linecap="round" stroke-linejoin="round" d="M5 18m-2 0a2 2 0 1 0 4 0a2 2 0 1 0-4 0"/>
    <path fill="none" stroke="currentColor" stroke-width="2" stroke-linecap="round" stroke-linejoin="round" d="M12 18m-2 0a2 2 0 1 0 4 0a2 2 0 1 0-4 0"/>
    <path fill="none" stroke="currentColor" stroke-width="2" stroke-linecap="round" stroke-linejoin="round" d="M5 8v8"/>
    <path fill="none" stroke="currentColor" stroke-width="2" stroke-linecap="round" stroke-linejoin="round" d="M12 8v8"/>
    <path fill="none" stroke="currentColor" stroke-width="2" stroke-linecap="round" stroke-linejoin="round" d="M19 8v2a2 2 0 0 1-2 2h-12"/>
  </symbol>

  <symbol id="ac" viewBox="0 0 256 256">
    <path d="M184,184a32,32,0,0,1-32,32c-13.7,0-26.95-8.93-31.5-21.22a8,8,0,0,1,15-5.56C137.74,195.27,145,200,152,200a16,16,0,0,0,0-32H40a8,8,0,0,1,0-16H152A32,32,0,0,1,184,184Zm-64-80a32,32,0,0,0,0-64c-13.7,0-26.95,8.93-31.5,21.22a8,8,0,0,0,15,5.56C105.74,60.73,113,56,120,56a16,16,0,0,1,0,32H24a8,8,0,0,0,0,16Zm88-32c-13.7,0-26.95,8.93-31.5,21.22a8,8,0,0,0,15,5.56C193.74,92.73,201,88,208,88a16,16,0,0,1,0,32H32a8,8,0,0,0,0,16H208a32,32,0,0,0,0-64Z" fill="currentColor"/>
  </symbol>
  <symbol id="shower" viewBox="0 0 256 256">
    <path d="M64,236a12,12,0,1,1-12-12A12,12,0,0,1,64,236Zm20-44a12,12,0,1,0,12,12A12,12,0,0,0,84,192Zm-64,0a12,12,0,1,0,12,12A12,12,0,0,0,20,192Zm32-32a12,12,0,1,0,12,12A12,12,0,0,0,52,160ZM256,40a8,8,0,0,1-8,8H219.31L191.46,75.86,169.8,202.65a16,16,0,0,1-27.09,8.66l-98-98a16,16,0,0,1,8.69-27.1L180.14,64.54l30.2-30.2A8,8,0,0,1,216,32h32A8,8,0,0,1,256,40ZM174.21,81.79,56,102l98,98Z" fill="currentColor"/>
  </symbol>

  <symbol id="kitchen" viewBox="0 0 256 256">
    <path d="M231.87,32.13a27.84,27.84,0,0,0-39.32,0L18.34,206.4a8,8,0,0,0,3.86,13.45A160.67,160.67,0,0,0,58.4,224c32.95,0,65.92-10.2,96.95-30.23,31.76-20.5,50.19-43.82,51-44.81a8,8,0,0,0-.64-10.59L185.32,118l46.55-46.56A27.85,27.85,0,0,0,231.87,32.13ZM189.1,144.44a220.41,220.41,0,0,1-42.86,36.16c-34.43,22.1-69.94,30.92-105.77,26.3L146,101.33Zm31.46-84.3L174,106.7,157.32,90l46.55-46.56a11.8,11.8,0,0,1,16.69,16.69Z" fill="currentColor"/>
  </symbol>
  <symbol id="tv" viewBox="0 0 256 256">
    <path d="M216,64H147.31l34.35-34.34a8,8,0,1,0-11.32-11.32L128,60.69,85.66,18.34A8,8,0,0,0,74.34,29.66L108.69,64H40A16,16,0,0,0,24,80V200a16,16,0,0,0,16,16H216a16,16,0,0,0,16-16V80A16,16,0,0,0,216,64ZM40,80H144V200H40ZM216,200H160V80h56V200Zm-16-84a12,12,0,1,1-12-12A12,12,0,0,1,200,116Zm0,48a12,12,0,1,1-12-12A12,12,0,0,1,200,164Z" fill="currentColor"/>
  </symbol>

  <symbol id="radio" viewBox="0 0 24 24">
    <path d="M3.24 6.15C2.51 6.43 2 7.17 2 8v12a2 2 0 0 0 2 2h16a2 2 0 0 0 2-2V8c0-1.11-.89-2-2-2H8.3l8.26-3.34L15.88 1 3.24 6.15zM7 20c-1.66 0-3-1.34-3-3s1.34-3 3-3 3 1.34 3 3-1.34 3-3 3zm13-8h-2v-2h-2v2H4V8h16v4z" fill="currentColor"/>
  </symbol>
  <symbol id="refrigerator" viewBox="0 0 24 24">
    <path d="M8 5h2v3H8zm0 7h2v5H8zm10-9.99L6 2a2 2 0 0 0-2 2v16c0 1.1.9 2 2 2h12c1.1 0 2-.9 2-2V4c0-1.11-.9-1.99-2-1.99zM18 20H6v-9.02h12V20zm0-11H6V4h12v5z" fill="currentColor"/>
  </symbol>

  <symbol id="microwave" viewBox="0 0 24 24">
    <path fill="none" stroke="currentColor" stroke-width="2" stroke-linecap="round" stroke-linejoin="round" d="M3 7a1 1 0 0 1 1-1h16a1 1 0 0 1 1 1v10a1 1 0 0 1-1 1H4a1 1 0 0 1-1-1z"/>
    <path fill="none" stroke="currentColor" stroke-width="2" stroke-linecap="round" stroke-linejoin="round" d="M15 6v12"/>
    <path fill="none" stroke="currentColor" stroke-width="2" stroke-linecap="round" stroke-linejoin="round" d="M18 12h.01"/>
    <path fill="none" stroke="currentColor" stroke-width="2" stroke-linecap="round" stroke-linejoin="round" d="M18 15h.01"/>
    <path fill="none" stroke="currentColor" stroke-width="2" stroke-linecap="round" stroke-linejoin="round" d="M18 9h.01"/>
    <path fill="none" stroke="currentColor" stroke-width="2" stroke-linecap="round" stroke-linejoin="round" d="M6.5 10.5c1-.667 1.5-.667 2.5 0 .833.347 1.667.926 2.5 0"/>
    <path fill="none" stroke="currentColor" stroke-width="2" stroke-linecap="round" stroke-linejoin="round" d="M6.5 13.5c1-.667 1.5-.667 2.5 0 .833.347 1.667.926 2.5 0"/>
  </symbol>

  <symbol id="flame" viewBox="0 0 256 256">
    <path d="M173.79,51.48a221.25,221.25,0,0,0-41.67-34.34,8,8,0,0,0-8.24,0A221.25,221.25,0,0,0,82.21,51.48C54.59,80.48,40,112.47,40,144a88,88,0,0,0,176,0C216,112.47,201.41,80.48,173.79,51.48ZM96,184c0-27.67,22.53-47.28,32-54.3,9.48,7,32,26.63,32,54.3a32,32,0,0,1-64,0Zm77.27,15.93A47.8,47.8,0,0,0,176,184c0-44-42.09-69.79-43.88-70.86a8,8,0,0,0-8.24,0C122.09,114.21,80,140,80,184a47.8,47.8,0,0,0,2.73,15.93A71.88,71.88,0,0,1,56,144c0-34.41,20.4-63.15,37.52-81.19A216.21,216.21,0,0,1,128,33.54a215.77,215.77,0,0,1,34.48,29.27C193.49,95.5,200,125,200,144A71.88,71.88,0,0,1,173.27,199.93Z" fill="currentColor"/>
  </symbol>
  <symbol id="water" viewBox="0 0 24 24">
    <path d="M12 2c-5.33 4.55-8 8.48-8 11.8 0 4.98 3.8 8.2 8 8.2s8-3.22 8-8.2c0-3.32-2.67-7.25-8-11.8zm0 18c-3.35 0-6-2.57-6-6.2 0-2.34 1.95-5.44 6-9.14 4.05 3.7 6 6.79 6 9.14 0 3.63-2.65 6.2-6 6.2zm-4.17-6c.37 0 .67.26.74.62.41 2.22 2.28 2.98 3.64 2.87.43-.02.79.32.79.75 0 .4-.32.73-.72.75-2.13.13-4.62-1.09-5.19-4.12a.75.75 0 0 1 .74-.87z" fill="currentColor"/>
  </symbol>

</svg>
